<?xml version="1.0" encoding="UTF-8" standalone="no"?><!DOCTYPE svg PUBLIC "-//W3C//DTD SVG 1.1//EN" "http://www.w3.org/Graphics/SVG/1.1/DTD/svg11.dtd"><svg width="100%" height="100%" viewBox="0 0 540 532" version="1.1" xmlns="http://www.w3.org/2000/svg" xmlns:xlink="http://www.w3.org/1999/xlink" xml:space="preserve" xmlns:serif="http://www.serif.com/" style="fill-rule:evenodd;clip-rule:evenodd;stroke-linejoin:round;stroke-miterlimit:2;"><g id="Layer-1" serif:id="Layer 1"><path d="M36.788,491.365c3.053,0 5.599,-1.102 7.637,-3.31c2.036,-2.203 3.055,-4.961 3.055,-8.269l0,-0.237c0,-1.573 -0.275,-3.072 -0.823,-4.49c-0.548,-1.417 -1.292,-2.657 -2.232,-3.721c-0.941,-1.064 -2.076,-1.89 -3.408,-2.481c-1.333,-0.591 -2.741,-0.886 -4.229,-0.886c-3.056,0 -5.601,1.104 -7.638,3.308c-2.038,2.207 -3.055,4.962 -3.055,8.27l0,0.238c0,3.308 1.017,6.065 3.055,8.269c2.037,2.207 4.582,3.31 7.638,3.31m10.101,12.64c-1.1,1.183 -2.259,2.344 -3.478,3.487c-1.218,1.144 -2.573,2.147 -4.065,3.012c-1.493,0.868 -3.183,1.575 -5.067,2.127c-1.887,0.549 -4.047,0.827 -6.482,0.827c-3.928,0 -7.564,-0.808 -10.902,-2.422c-3.338,-1.615 -6.265,-3.9 -8.779,-6.851c-2.515,-2.955 -4.478,-6.461 -5.892,-10.519c-1.415,-4.053 -2.122,-8.563 -2.122,-13.527l0,-0.236c0,-5.12 0.726,-9.767 2.181,-13.942c1.452,-4.173 3.416,-7.757 5.892,-10.75c2.474,-2.993 5.382,-5.298 8.72,-6.911c3.338,-1.615 6.894,-2.423 10.666,-2.423c4.87,0 8.798,0.906 11.785,2.716c2.985,1.813 5.5,3.861 7.543,6.144l0,-7.326l26.939,0l0,83.414l-26.939,0l0,-26.82Z" style="fill-rule:nonzero;"/><path d="M121.143,513.46c-6.834,0 -12.214,-2.086 -16.141,-6.262c-3.928,-4.176 -5.89,-9.926 -5.89,-17.252l0,-42.533l26.938,0l0,33.909c0,2.758 0.697,4.903 2.094,6.44c1.395,1.535 3.101,2.304 5.116,2.304c2.015,0 3.778,-0.769 5.29,-2.304c1.512,-1.537 2.268,-3.682 2.268,-6.44l0,-33.909l26.939,0l0,64.51l-26.939,0l0,-8.625c-2.041,2.679 -4.692,5.042 -7.952,7.09c-3.261,2.046 -7.166,3.072 -11.723,3.072" style="fill-rule:nonzero;"/><path d="M230.552,491.365c3.053,0 5.599,-1.102 7.637,-3.31c2.036,-2.203 3.056,-4.961 3.056,-8.269l0,-0.237c0,-3.308 -1.02,-6.064 -3.056,-8.27c-2.038,-2.204 -4.584,-3.308 -7.637,-3.308c-3.055,0 -5.601,1.104 -7.638,3.308c-2.037,2.206 -3.055,4.962 -3.055,8.27l0,0.237c0,1.577 0.274,3.072 0.821,4.489c0.549,1.42 1.293,2.66 2.234,3.722c0.94,1.064 2.056,1.89 3.35,2.481c1.292,0.591 2.721,0.887 4.288,0.887m-37.041,-43.953l26.939,0l0,7.918c1.1,-1.183 2.258,-2.342 3.476,-3.486c1.218,-1.141 2.573,-2.146 4.067,-3.014c1.492,-0.863 3.182,-1.575 5.067,-2.125c1.886,-0.552 4.046,-0.827 6.483,-0.827c3.848,0 7.463,0.808 10.842,2.423c3.377,1.613 6.324,3.897 8.839,6.851c2.514,2.954 4.478,6.459 5.892,10.515c1.415,4.058 2.121,8.567 2.121,13.529l0,0.236c0,5.122 -0.727,9.768 -2.179,13.942c-1.455,4.175 -3.42,7.759 -5.894,10.752c-2.475,2.995 -5.383,5.296 -8.72,6.911c-3.34,1.614 -6.896,2.423 -10.666,2.423c-4.872,0 -8.8,-0.907 -11.785,-2.719c-2.986,-1.81 -5.501,-3.858 -7.543,-6.144l0,26.229l-26.939,0l0,-83.414Z" style="fill-rule:nonzero;"/><path d="M320.405,497.982c2.362,0 4.33,-0.887 5.907,-2.66c1.575,-1.772 2.364,-4.194 2.364,-7.266l0,-2.717c-0.789,-0.313 -1.734,-0.569 -2.837,-0.767c-1.104,-0.195 -2.205,-0.297 -3.308,-0.297c-2.678,0 -4.726,0.692 -6.143,2.069c-1.419,1.378 -2.127,3.091 -2.127,5.139l0,0.236c0,1.89 0.59,3.408 1.771,4.55c1.182,1.141 2.639,1.713 4.373,1.713m-10.634,15.478c-3.072,0 -5.908,-0.436 -8.507,-1.3c-2.599,-0.866 -4.844,-2.147 -6.735,-3.842c-1.89,-1.692 -3.348,-3.759 -4.371,-6.202c-1.025,-2.439 -1.536,-5.276 -1.536,-8.507l0,-0.236c0,-6.457 2.204,-11.419 6.617,-14.886c4.41,-3.465 10.396,-5.2 17.958,-5.2c1.338,0 2.757,0.059 4.254,0.179c1.495,0.118 2.933,0.294 4.312,0.53c1.377,0.237 2.659,0.494 3.841,0.769c1.18,0.276 2.125,0.572 2.835,0.885l0,-1.064c0,-2.991 -0.945,-5.296 -2.835,-6.911c-1.892,-1.612 -4.925,-2.422 -9.098,-2.422c-3.309,0 -6.401,0.336 -9.275,1.005c-2.876,0.671 -5.731,1.556 -8.566,2.658l-4.727,-17.841c3.782,-1.417 7.838,-2.558 12.17,-3.427c4.332,-0.864 9.334,-1.299 15.005,-1.299c6.616,0 12.11,0.692 16.482,2.069c4.372,1.379 7.976,3.484 10.811,6.32c2.44,2.443 4.174,5.278 5.199,8.507c1.023,3.23 1.536,7.208 1.536,11.932l0,36.745l-26.821,0l0,-6.497c-2.286,2.442 -4.943,4.39 -7.975,5.848c-3.033,1.457 -6.557,2.187 -10.574,2.187" style="fill-rule:nonzero;"/><path d="M402.991,531.182c-4.727,0 -9.157,-0.612 -13.292,-1.832c-4.135,-1.223 -8.016,-2.857 -11.638,-4.902l7.798,-18.314c2.44,1.339 4.706,2.382 6.794,3.131c2.086,0.748 3.76,1.123 5.021,1.123c1.654,0 3.11,-0.316 4.372,-0.947l-25.285,-62.029l27.766,0l11.224,34.029l10.28,-34.029l27.292,0l-22.331,60.021c-1.577,4.254 -3.21,7.876 -4.903,10.871c-1.695,2.992 -3.643,5.435 -5.848,7.325c-2.207,1.89 -4.708,3.286 -7.503,4.193c-2.797,0.906 -6.046,1.36 -9.747,1.36" style="fill-rule:nonzero;"/><path d="M504.481,497.982c2.362,0 4.331,-0.887 5.907,-2.66c1.575,-1.772 2.364,-4.194 2.364,-7.266l0,-2.717c-0.789,-0.313 -1.734,-0.569 -2.837,-0.767c-1.103,-0.195 -2.205,-0.297 -3.307,-0.297c-2.679,0 -4.727,0.692 -6.144,2.069c-1.418,1.378 -2.127,3.091 -2.127,5.139l0,0.236c0,1.89 0.59,3.408 1.772,4.55c1.182,1.141 2.639,1.713 4.372,1.713m-10.634,15.478c-3.072,0 -5.907,-0.436 -8.507,-1.3c-2.599,-0.866 -4.844,-2.147 -6.734,-3.842c-1.891,-1.692 -3.349,-3.759 -4.372,-6.202c-1.025,-2.439 -1.536,-5.276 -1.536,-8.507l0,-0.236c0,-6.457 2.205,-11.419 6.617,-14.886c4.41,-3.465 10.396,-5.2 17.958,-5.2c1.339,0 2.757,0.059 4.254,0.179c1.495,0.118 2.933,0.294 4.312,0.53c1.377,0.237 2.659,0.494 3.841,0.769c1.18,0.276 2.125,0.572 2.835,0.885l0,-1.064c0,-2.991 -0.945,-5.296 -2.835,-6.911c-1.891,-1.612 -4.925,-2.422 -9.098,-2.422c-3.309,0 -6.4,0.336 -9.275,1.005c-2.876,0.671 -5.73,1.556 -8.566,2.658l-4.726,-17.841c3.781,-1.417 7.837,-2.558 12.17,-3.427c4.331,-0.864 9.333,-1.299 15.004,-1.299c6.616,0 12.11,0.692 16.483,2.069c4.371,1.379 7.975,3.484 10.81,6.32c2.44,2.443 4.174,5.278 5.199,8.507c1.023,3.23 1.536,7.208 1.536,11.932l0,36.745l-26.821,0l0,-6.497c-2.285,2.442 -4.943,4.39 -7.975,5.848c-3.033,1.457 -6.557,2.187 -10.574,2.187" style="fill-rule:nonzero;"/><path d="M381.249,303.352l57.216,57.222l-178.351,0c-37.152,0 -72.815,-11.146 -103.286,-32.699c-23.041,-16.348 -42.355,-37.895 -55.727,-63.163c-13.384,-26.006 -20.814,-54.989 -20.814,-83.972c0,-44.582 16.348,-87.687 46.819,-121.123c10.396,-11.146 22.291,-20.809 34.925,-28.983c29.722,-19.32 63.908,-29.722 98.833,-29.722c48.297,0 93.629,18.576 127.816,52.757c34.174,34.186 52.762,79.512 52.762,127.815c0,34.925 -10.407,69.111 -29.733,98.089l-5.192,7.436l-64.658,-64.652l2.227,-4.46c5.203,-11.889 8.18,-24.523 8.18,-37.157c0,-24.518 -9.657,-47.559 -26.756,-64.646c-17.087,-17.093 -40.128,-26.756 -64.646,-26.756c-12.634,0 -25.268,2.977 -37.152,8.174c-10.407,4.46 -19.325,10.407 -27.494,18.582c-1.489,1.483 -2.977,2.971 -4.465,5.198c-14.122,16.349 -21.553,37.157 -21.553,58.71c0,24.517 9.669,47.558 26.756,64.646c17.088,17.093 39.379,26.756 63.158,26.756l89.926,0l2.226,2.227l28.983,29.721Z" style="fill-rule:nonzero;"/><path d="M313.679,174.627c0,29.065 -23.562,52.627 -52.627,52.627c-29.065,0 -52.627,-23.562 -52.627,-52.627c0,-29.065 23.562,-52.627 52.627,-52.627c29.065,0 52.627,23.562 52.627,52.627" style="fill-rule:nonzero;"/></g></svg>